<svg xmlns="http://www.w3.org/2000/svg" viewBox="0 0 64 64" width="64" height="64" role="img" aria-label="BlueLog"><rect width="64" height="64" rx="14.272" fill="#2F6BDE"/><g transform="translate(17.75 12.80) scale(0.051822) translate(-91.00 741.00)"><defs><clipPath id="fvm"><path d="M91 0H355C518 0 641 -69 641 -218C641 -317 583 -374 503 -393V-397C566 -420 604 -489 604 -558C604 -696 488 -741 336 -741H91ZM239 -439V-627H327C416 -627 460 -601 460 -536C460 -477 420 -439 326 -439ZM239 -114V-330H342C444 -330 497 -299 497 -227C497 -150 442 -114 342 -114Z"/></clipPath></defs><g clip-path="url(#fvm)"><rect x="71.0" y="-761.0" width="590.0" height="781.0" fill="#FFFFFF"/></g></g></svg>